<svg width="80" height="80" viewBox="0 0 80 80" fill="none" xmlns="http://www.w3.org/2000/svg">
  <!-- Central hexagonal cluster -->
  <g transform="translate(40, 40)">
    <!-- Center hexagon -->
    <polygon points="0,-8 7,-4 7,4 0,8 -7,4 -7,-4" fill="#00E5CC" opacity="0.9"/>
    
    <!-- Surrounding hexagons -->
    <polygon points="0,-20 7,-16 7,-8 0,-4 -7,-8 -7,-16" fill="#00E5CC" opacity="0.8"/>
    <polygon points="12,-16 19,-12 19,-4 12,0 5,-4 5,-12" fill="#00E5CC" opacity="0.8"/>
    <polygon points="12,0 19,4 19,12 12,16 5,12 5,4" fill="#00E5CC" opacity="0.8"/>
    <polygon points="0,4 7,8 7,16 0,20 -7,16 -7,8" fill="#00E5CC" opacity="0.8"/>
    <polygon points="-12,0 -5,4 -5,12 -12,16 -19,12 -19,4" fill="#00E5CC" opacity="0.8"/>
    <polygon points="-12,-16 -5,-12 -5,-4 -12,0 -19,-4 -19,-12" fill="#00E5CC" opacity="0.8"/>
  </g>
  
  <!-- Orbital rings and nodes -->
  <g transform="translate(40, 40)" opacity="0.6">
    <!-- Inner orbit -->
    <circle r="24" fill="none" stroke="#00E5CC" stroke-width="1" opacity="0.3"/>
    <circle cx="20" cy="-12" r="3" fill="#00E5CC"/>
    <circle cx="-15" cy="18" r="2.5" fill="#00E5CC"/>
    <circle cx="8" cy="22" r="2" fill="#00E5CC"/>
    <circle cx="-22" cy="-8" r="2.5" fill="#00E5CC"/>
    
    <!-- Middle orbit -->
    <circle r="32" fill="none" stroke="#00E5CC" stroke-width="0.8" opacity="0.2"/>
    <circle cx="28" cy="16" r="4" fill="#00E5CC"/>
    <circle cx="-24" cy="20" r="3" fill="#00E5CC"/>
    <circle cx="16" cy="-28" r="3.5" fill="#00E5CC"/>
    <circle cx="-30" cy="-10" r="3" fill="#00E5CC"/>
    <circle cx="2" cy="32" r="2.5" fill="#00E5CC"/>
    
    <!-- Outer orbit -->
    <circle r="38" fill="none" stroke="#00E5CC" stroke-width="0.6" opacity="0.15"/>
    <circle cx="34" cy="-16" r="4.5" fill="#00E5CC"/>
    <circle cx="-28" cy="-28" r="3.5" fill="#00E5CC"/>
    <circle cx="18" cy="34" r="3" fill="#00E5CC"/>
    <circle cx="-36" cy="12" r="4" fill="#00E5CC"/>
    <circle cx="-8" cy="-36" r="2.5" fill="#00E5CC"/>
    <circle cx="38" cy="8" r="3" fill="#00E5CC"/>
    
    <!-- Connection lines -->
    <path d="M20,-12 L28,16 M-15,18 L-24,20 M8,22 L16,-28 M-22,-8 L-30,-10" 
          stroke="#00E5CC" stroke-width="0.5" opacity="0.2"/>
    <path d="M28,16 L34,-16 M-24,20 L-28,-28 M16,-28 L18,34 M-30,-10 L-36,12" 
          stroke="#00E5CC" stroke-width="0.4" opacity="0.15"/>
  </g>
</svg>